<svg fill="currentColor" xmlns="http://www.w3.org/2000/svg" xmlns:xlink="http://www.w3.org/1999/xlink" width="16px" height="16px" viewBox="0 0 16 16" version="1.1">
    <g id="surface1">
        <path stroke="none" fill-rule="nonzero" fill-opacity="1" d="M 9.886719 5.171875 L 6.113281 8.941406 C 5.855469 9.203125 5.855469 9.625 6.113281 9.886719 C 6.375 10.144531 6.796875 10.144531 7.058594 9.886719 L 10.828125 6.113281 C 11.609375 5.332031 11.609375 4.066406 10.828125 3.285156 C 10.046875 2.503906 8.78125 2.503906 8 3.285156 L 4.230469 7.058594 C 2.925781 8.359375 2.925781 10.46875 4.230469 11.769531 C 5.53125 13.074219 7.640625 13.074219 8.941406 11.769531 L 12.714844 8 L 13.65625 8.941406 L 9.886719 12.714844 C 8.0625 14.535156 5.109375 14.535156 3.285156 12.714844 C 1.464844 10.890625 1.464844 7.9375 3.285156 6.113281 L 7.058594 2.34375 C 8.359375 1.042969 10.46875 1.042969 11.769531 2.34375 C 13.074219 3.644531 13.074219 5.753906 11.769531 7.058594 L 8 10.828125 C 7.21875 11.609375 5.953125 11.609375 5.171875 10.828125 C 4.390625 10.046875 4.390625 8.78125 5.171875 8 L 8.941406 4.230469 Z M 9.886719 5.171875 "/>
    </g>
</svg>
