<svg width="22" height="28" viewBox="0 0 22 28" fill="none" xmlns="http://www.w3.org/2000/svg">
<g clip-path="url(#clip0_1811_15061)">
<path d="M22.2271 7.38281L16.304 5.74219L14.6117 0H2.76551C1.36355 0 0.227051 1.10179 0.227051 2.46094V25.5391C0.227051 26.8982 1.36355 28 2.76551 28H19.6886C21.0906 28 22.2271 26.8982 22.2271 25.5391V7.38281Z" fill="currentColor"/>
<path d="M22.227 7.38281H16.3039C15.3731 7.38281 14.6116 6.64453 14.6116 5.74219V0C14.8316 0 15.0516 0.0820312 15.2038 0.246148L21.9731 6.80865C22.1423 6.95625 22.227 7.16953 22.227 7.38281Z" fill="currentColor"/>
<path d="M16.304 13.1797H6.15011C5.68241 13.1797 5.30396 12.8128 5.30396 12.3594C5.30396 11.906 5.68241 11.5391 6.15011 11.5391H16.304C16.7717 11.5391 17.1501 11.906 17.1501 12.3594C17.1501 12.8128 16.7717 13.1797 16.304 13.1797Z" fill="white"/>
<path d="M16.304 16.4609H6.15011C5.68241 16.4609 5.30396 16.094 5.30396 15.6406C5.30396 15.1872 5.68241 14.8203 6.15011 14.8203H16.304C16.7717 14.8203 17.1501 15.1872 17.1501 15.6406C17.1501 16.094 16.7717 16.4609 16.304 16.4609Z" fill="white"/>
<path d="M16.304 19.7422H6.15011C5.68241 19.7422 5.30396 19.3753 5.30396 18.9219C5.30396 18.4685 5.68241 18.1016 6.15011 18.1016H16.304C16.7717 18.1016 17.1501 18.4685 17.1501 18.9219C17.1501 19.3753 16.7717 19.7422 16.304 19.7422Z" fill="white"/>
<path d="M12.9193 23.0234H6.15011C5.68241 23.0234 5.30396 22.6565 5.30396 22.2031C5.30396 21.7497 5.68241 21.3828 6.15011 21.3828H12.9193C13.387 21.3828 13.7655 21.7497 13.7655 22.2031C13.7655 22.6565 13.387 23.0234 12.9193 23.0234Z" fill="white"/>
</g>
<defs>
<clipPath id="clip0_1811_15061">
<rect width="22" height="28" fill="white"/>
</clipPath>
</defs>
</svg>
