<svg width="56" height="56" viewBox="0 0 56 56" fill="none" xmlns="http://www.w3.org/2000/svg">
<g filter="url(#filter0_d_8732_12671)">
<rect x="10" y="10" width="36" height="36" rx="6" fill="#143566" shape-rendering="crispEdges"/>
<path d="M28.834 18.6667H23.0007C22.5586 18.6667 22.1347 18.8423 21.8221 19.1549C21.5096 19.4675 21.334 19.8914 21.334 20.3334V33.6667C21.334 34.1088 21.5096 34.5327 21.8221 34.8453C22.1347 35.1578 22.5586 35.3334 23.0007 35.3334H33.0007C33.4427 35.3334 33.8666 35.1578 34.1792 34.8453C34.4917 34.5327 34.6673 34.1088 34.6673 33.6667V24.5001L28.834 18.6667Z" stroke="white" stroke-width="1.5" stroke-linecap="round" stroke-linejoin="round"/>
<path d="M28.834 18.6667V24.5001H34.6673" stroke="white" stroke-width="1.5" stroke-linecap="round" stroke-linejoin="round"/>
<path d="M29.666 30.3333L31.3327 28.6667L29.666 27" stroke="white" stroke-width="1.5" stroke-linecap="round" stroke-linejoin="round"/>
<path d="M26.334 26.9999L24.6673 28.6666L26.334 30.3333" stroke="white" stroke-width="1.5" stroke-linecap="round" stroke-linejoin="round"/>
</g>
<defs>
<filter id="filter0_d_8732_12671" x="0" y="0" width="56" height="56" filterUnits="userSpaceOnUse" color-interpolation-filters="sRGB">
<feFlood flood-opacity="0" result="BackgroundImageFix"/>
<feColorMatrix in="SourceAlpha" type="matrix" values="0 0 0 0 0 0 0 0 0 0 0 0 0 0 0 0 0 0 127 0" result="hardAlpha"/>
<feOffset/>
<feGaussianBlur stdDeviation="5"/>
<feComposite in2="hardAlpha" operator="out"/>
<feColorMatrix type="matrix" values="0 0 0 0 0 0 0 0 0 0 0 0 0 0 0 0 0 0 0.2 0"/>
<feBlend mode="normal" in2="BackgroundImageFix" result="effect1_dropShadow_8732_12671"/>
<feBlend mode="normal" in="SourceGraphic" in2="effect1_dropShadow_8732_12671" result="shape"/>
</filter>
</defs>
</svg>
