<svg viewBox="0 0 22 28" fill="none" xmlns="http://www.w3.org/2000/svg">
  <g clip-path="url(#clip0_1813_15242)">
    <path
      d="M21.788 7.38281L16.3739 5.74219L14.827 0H3.22546C2.37112 0 1.67859 0.734508 1.67859 1.64062V26.3594C1.67859 27.2655 2.37112 28 3.22546 28H20.2411C21.0954 28 21.788 27.2655 21.788 26.3594V7.38281Z"
      fill="#EDEDED"/>
    <path
      d="M21.7879 7.38281V26.3594C21.7879 27.2655 21.0954 28 20.2411 28H11.8571V0H14.827L16.3739 5.74219L21.7879 7.38281Z"
      fill="#EDEDED"/>
    <path
      d="M21.788 7.38281H16.3739C15.5231 7.38281 14.827 6.64453 14.827 5.74219V0C15.0281 0 15.2292 0.0820312 15.3684 0.246148L21.5559 6.80865C21.7106 6.95625 21.788 7.16953 21.788 7.38281Z"
      fill="#BDBDBD"/>
    <path
      d="M20.5333 22.4259C20.5333 22.925 20.1483 23.3333 19.6778 23.3333H0.855556C0.385 23.3333 0 22.925 0 22.4259V13.3519C0 12.8528 0.385 12.4445 0.855556 12.4445H19.6778C20.1483 12.4445 20.5333 12.8528 20.5333 13.3519V22.4259Z"
      fill="#FF3E3E"/>
    <path
      d="M4.25304 17.732V16.448H4.98504C5.09304 16.448 5.19704 16.456 5.29704 16.472C5.39704 16.488 5.48504 16.52 5.56104 16.568C5.63704 16.612 5.69704 16.676 5.74104 16.76C5.78904 16.844 5.81304 16.954 5.81304 17.09C5.81304 17.226 5.78904 17.336 5.74104 17.42C5.69704 17.504 5.63704 17.57 5.56104 17.618C5.48504 17.662 5.39704 17.692 5.29704 17.708C5.19704 17.724 5.09304 17.732 4.98504 17.732H4.25304ZM3.31104 15.716V20H4.25304V18.464H5.24304C5.51104 18.464 5.73904 18.426 5.92704 18.35C6.11504 18.27 6.26704 18.166 6.38304 18.038C6.50304 17.91 6.58904 17.764 6.64104 17.6C6.69704 17.432 6.72504 17.262 6.72504 17.09C6.72504 16.914 6.69704 16.744 6.64104 16.58C6.58904 16.416 6.50304 16.27 6.38304 16.142C6.26704 16.014 6.11504 15.912 5.92704 15.836C5.73904 15.756 5.51104 15.716 5.24304 15.716H3.31104Z"
      fill="white"/>
    <path
      d="M8.85499 19.208V16.508H9.52699C9.75899 16.508 9.95299 16.542 10.109 16.61C10.269 16.674 10.397 16.768 10.493 16.892C10.589 17.016 10.657 17.166 10.697 17.342C10.741 17.514 10.763 17.708 10.763 17.924C10.763 18.16 10.733 18.36 10.673 18.524C10.613 18.688 10.533 18.822 10.433 18.926C10.333 19.026 10.219 19.098 10.091 19.142C9.96299 19.186 9.83099 19.208 9.69499 19.208H8.85499ZM7.91299 15.716V20H9.76099C10.089 20 10.373 19.946 10.613 19.838C10.857 19.726 11.059 19.574 11.219 19.382C11.383 19.19 11.505 18.962 11.585 18.698C11.665 18.434 11.705 18.146 11.705 17.834C11.705 17.478 11.655 17.168 11.555 16.904C11.459 16.64 11.323 16.42 11.147 16.244C10.975 16.068 10.769 15.936 10.529 15.848C10.293 15.76 10.037 15.716 9.76099 15.716H7.91299Z"
      fill="white"/>
    <path d="M12.9603 15.716V20H13.9023V18.23H15.6963V17.498H13.9023V16.508H15.9723V15.716H12.9603Z" fill="white"/>
  </g>
  <defs>
    <clipPath id="clip0_1813_15242">
      <rect width="22" height="28" fill="white"/>
    </clipPath>
  </defs>
</svg>