<svg width="22" height="28" viewBox="0 0 22 28" fill="none" xmlns="http://www.w3.org/2000/svg">
    <g clip-path="url(#clip0_1811_14941)">
        <path d="M21.7881 7.38281L16.374 5.74219L14.8271 0H3.22559C2.37125 0 1.67871 0.734508 1.67871 1.64062V26.3594C1.67871 27.2655 2.37125 28 3.22559 28H20.2412C21.0956 28 21.7881 27.2655 21.7881 26.3594V7.38281Z" fill="#EDEDED"/>
        <path d="M21.7881 7.38281V26.3594C21.7881 27.2655 21.0955 28 20.2412 28H11.8572V0H14.8271L16.374 5.74219L21.7881 7.38281Z" fill="#EDEDED"/>
        <path d="M21.7881 7.38281H16.374C15.5232 7.38281 14.8271 6.64453 14.8271 5.74219V0C15.0282 0 15.2293 0.0820312 15.3685 0.246148L21.556 6.80865C21.7107 6.95625 21.7881 7.16953 21.7881 7.38281Z" fill="#BDBDBD"/>
        <path d="M20.5333 22.4259C20.5333 22.925 20.1483 23.3333 19.6778 23.3333H0.855556C0.385 23.3333 0 22.925 0 22.4259V13.3519C0 12.8528 0.385 12.4444 0.855556 12.4444H19.6778C20.1483 12.4444 20.5333 12.8528 20.5333 13.3519V22.4259Z" fill="#161C28"/>
        <path d="M4.62629 16.508V20H5.56828V16.508H6.85229V15.716H3.34229V16.508H4.62629Z" fill="white"/>
        <path d="M8.99625 17.756L7.50225 20H8.55825L9.51225 18.518L10.4483 20H11.5703L10.0763 17.762L11.4503 15.716H10.4183L9.54825 17.084L8.70825 15.716H7.61625L8.99625 17.756Z" fill="white"/>
        <path d="M13.4962 16.508V20H14.4382V16.508H15.7222V15.716H12.2122V16.508H13.4962Z" fill="white"/>
    </g>
    <defs>
        <clipPath id="clip0_1811_14941">
            <rect width="22" height="28" fill="white"/>
        </clipPath>
    </defs>
</svg>