<svg viewBox="0 0 22 28" fill="none" xmlns="http://www.w3.org/2000/svg">
    <g clip-path="url(#clip0_1811_14989)">
        <path d="M22.2271 7.38281L16.304 5.74219L14.6117 0H1.91936C0.984697 0 0.227051 0.734508 0.227051 1.64062V26.3594C0.227051 27.2655 0.984697 28 1.91936 28H20.5347C21.4694 28 22.2271 27.2655 22.2271 26.3594V7.38281Z" fill="#C9E3F4"/>
        <path d="M22.2271 7.38281V26.3594C22.2271 27.2655 21.4695 28 20.5348 28H11.3625V0H14.6117L16.304 5.74219L22.2271 7.38281Z" fill="#C9E3F4"/>
        <path d="M22.227 7.38281H16.3039C15.3731 7.38281 14.6116 6.64453 14.6116 5.74219V0C14.8316 0 15.0516 0.0820312 15.2038 0.246148L21.9731 6.80865C22.1423 6.95625 22.227 7.16953 22.227 7.38281Z" fill="#AAC4D6"/>
    </g>
    <defs>
        <clipPath id="clip0_1811_14989">
            <rect width="22" height="28" fill="white"/>
        </clipPath>
    </defs>
</svg>