<svg width="24" height="24" viewBox="0 0 24 24" fill="none" xmlns="http://www.w3.org/2000/svg">    <path d="M10 12.4503C10.3236 12.894 10.7365 13.2612 11.2106 13.5269C11.6847 13.7926 12.209 13.9505 12.7479 13.9901C13.2868 14.0297 13.8277 13.95 14.3339 13.7563C14.8401 13.5626 15.2998 13.2596 15.6817 12.8677L17.9424 10.549C18.6287 9.82019 19.0084 8.84404 18.9999 7.83081C18.9913 6.81758 18.595 5.84834 17.8965 5.13185C17.1979 4.41536 16.2529 4.00895 15.265 4.00015C14.2771 3.99134 13.3254 4.38085 12.6148 5.08478L11.3187 6.4064" stroke="currentColor" stroke-width="2" stroke-linecap="round" stroke-linejoin="round"/>    <path d="M13 10.5497C12.6764 10.106 12.2635 9.73881 11.7894 9.47313C11.3153 9.20745 10.791 9.04946 10.2521 9.00987C9.7132 8.97029 9.17231 9.05004 8.66611 9.24371C8.15991 9.43738 7.70024 9.74045 7.31828 10.1323L5.05764 12.451C4.37132 13.1798 3.99156 14.156 4.00014 15.1692C4.00873 16.1824 4.40497 17.1517 5.10354 17.8681C5.80211 18.5846 6.7471 18.991 7.73498 18.9999C8.72287 19.0087 9.6746 18.6192 10.3852 17.9152L11.6738 16.5936" stroke="currentColor" stroke-width="2" stroke-linecap="round" stroke-linejoin="round"/>    <path d="M8.1582 2.67383L9.06952 5.30645" stroke="currentColor" stroke-width="2" stroke-linecap="round" stroke-linejoin="round"/>    <path d="M18.4316 17.667L16.8262 15.3902" stroke="currentColor" stroke-width="2" stroke-linecap="round" stroke-linejoin="round"/>    <path d="M5 5.28906L7.23775 6.94848" stroke="currentColor" stroke-width="2" stroke-linecap="round" stroke-linejoin="round"/>    <path d="M20.7402 14.2783L18.1301 13.3044" stroke="currentColor" stroke-width="2" stroke-linecap="round" stroke-linejoin="round"/></svg>