<svg width="22" height="28" viewBox="0 0 22 28" fill="none" xmlns="http://www.w3.org/2000/svg">
<path d="M21.9982 7.38281L16.0756 5.74219L14.3835 0H1.69217C0.757586 0 0 0.734508 0 1.64062V26.3594C0 27.2655 0.757586 28 1.69217 28H20.3061C21.2407 28 21.9982 27.2655 21.9982 26.3594V7.38281Z" fill="#59C36A"/>
<path d="M21.9982 7.38281V26.3594C21.9982 27.2655 21.2406 28 20.306 28H11.1345V0H14.3834L16.0756 5.74219L21.9982 7.38281Z" fill="#59C36A"/>
<path d="M16.0753 11.5391H5.92226C5.4546 11.5391 5.07617 11.906 5.07617 12.3594V22.2031C5.07617 22.6565 5.4546 23.0234 5.92226 23.0234H16.0753C16.543 23.0234 16.9214 22.6565 16.9214 22.2031V12.3594C16.9214 11.906 16.543 11.5391 16.0753 11.5391ZM6.76834 16.4609H10.1527V18.1016H6.76834V16.4609ZM11.8449 16.4609H15.2292V18.1016H11.8449V16.4609ZM15.2292 14.8203H11.8449V13.1797H15.2292V14.8203ZM10.1527 13.1797V14.8203H6.76834V13.1797H10.1527ZM6.76834 19.7422H10.1527V21.3828H6.76834V19.7422ZM11.8449 21.3828V19.7422H15.2292V21.3828H11.8449Z" fill="white"/>
<path d="M16.0758 11.5391H11.1365V23.0234H16.0758C16.5435 23.0234 16.9219 22.6565 16.9219 22.2031V12.3594C16.9219 11.906 16.5435 11.5391 16.0758 11.5391ZM15.2297 21.3828H11.8454V19.7422H15.2297V21.3828ZM15.2297 18.1016H11.8454V16.4609H15.2297V18.1016ZM15.2297 14.8203H11.8454V13.1797H15.2297V14.8203Z" fill="white"/>
<path d="M21.9995 7.38281H16.0769C15.1462 7.38281 14.3848 6.64453 14.3848 5.74219V0C14.6047 0 14.8247 0.0820312 14.977 0.246148L21.7457 6.80865C21.9149 6.95625 21.9995 7.16953 21.9995 7.38281Z" fill="#A0DEB0"/>
</svg>
